<svg xmlns="http://www.w3.org/2000/svg" xmlns:xlink="http://www.w3.org/1999/xlink" viewBox="0 0 550 300">
  <defs>
    <style>
      .cls-1 {
        opacity: 0.27;
        fill: url(#linear-gradient);
      }

      .cls-2 {
        opacity: 0.17;
        fill: url(#linear-gradient-2);
      }

      .cls-10, .cls-3, .cls-4, .cls-8 {
        fill: none;
      }

      .cls-10, .cls-3, .cls-4 {
        stroke: gray;
      }

      .cls-10, .cls-3, .cls-4, .cls-7, .cls-8 {
        stroke-linecap: round;
        stroke-linejoin: round;
      }

      .cls-3, .cls-7, .cls-8 {
        stroke-width: 1.09321px;
      }

      .cls-4 {
        stroke-width: 0.88905px;
      }

      .cls-5, .cls-7 {
        fill: #fff;
      }

      .cls-6 {
        fill: #3eae49;
      }

      .cls-7, .cls-8 {
        stroke: #3eae49;
      }

      .cls-9 {
        opacity: 0.4;
        fill: url(#linear-gradient-3);
      }

      .cls-10 {
        stroke-width: 1.11918px;
      }
    </style>
    <linearGradient id="linear-gradient" x1="-2823.81131" y1="7137.17726" x2="-2933.73691" y2="7247.10286" gradientTransform="translate(-2530.19263 7355.22476) rotate(180)" gradientUnits="userSpaceOnUse">
      <stop offset="0" stop-color="#6ea4ff"/>
      <stop offset="0.09606" stop-color="#65aefe"/>
      <stop offset="0.70707" stop-color="#32e8fb"/>
      <stop offset="1" stop-color="#1efffa"/>
    </linearGradient>
    <linearGradient id="linear-gradient-2" x1="-3817.80167" y1="9297.01335" x2="-3898.04531" y2="9216.76971" gradientTransform="matrix(-0.99627, -0.08624, 0.08156, -0.94225, -4425.82997, 8615.08437)" gradientUnits="userSpaceOnUse">
      <stop offset="0" stop-color="#ff344a"/>
      <stop offset="0.13906" stop-color="#ff3d60"/>
      <stop offset="0.42953" stop-color="#ff559a"/>
      <stop offset="0.84404" stop-color="#ff7af5"/>
      <stop offset="0.88872" stop-color="#ff7eff"/>
    </linearGradient>
    <linearGradient id="linear-gradient-3" x1="92.13675" y1="195.55048" x2="272.91721" y2="78.37064" gradientUnits="userSpaceOnUse">
      <stop offset="0" stop-color="#e6d800"/>
      <stop offset="0.0647" stop-color="#e9c300"/>
      <stop offset="0.20563" stop-color="#e90"/>
      <stop offset="0.31662" stop-color="#f27f00"/>
      <stop offset="0.38316" stop-color="#f37600"/>
      <stop offset="0.72856" stop-color="#ff5a66"/>
      <stop offset="1" stop-color="#ff59a4"/>
    </linearGradient>
  </defs>
  <g id="draw">
    <g>
      <path class="cls-1" d="M422.41966,219.02438c-39.56381-15.27424-105.87468,3.89622-129.69124-10.97945s-16.20978-33.86047-31.02537-41.52462-46.29969-16.81-46.30084-31.70235C215.39705,68.43388,317.21559,63.0099,334.979,70.033c42.63713,16.85748,40.201,60.07013,78.08352,66.626C475.77284,147.51144,521.26635,257.18572,422.41966,219.02438Z"/>
      <path class="cls-2" d="M217.64076,258.01778c-14.74788,1.337-41.652,3.80193-54.70214-5.36445s-13.3382-8.07563-21.53011-12.92538-20.84832-12.41106-19.70252-34.09644c1.88418-35.65975,57.607-16.70377,67.52934-12.05055,23.81644,11.169,8.34164,38.58344,30.25181,42.29531C226.101,236.99674,231.24162,256.7848,217.64076,258.01778Z"/>
      <path class="cls-3" d="M85.8749,243.13042c5.39041.44138,8.19341,3.006,8.409,6.036s-5.606,4.08533-5.606,0,10.47649-5.40124,13.10823-4.312"/>
      <path class="cls-3" d="M477.79307,110.32281c-4.67112-3.19105-5.89154-6.97289-4.51932-9.83857s7.20995-.81189,5.09555,2.90144-12.318-.51279-14.14637-2.86488"/>
      <path class="cls-4" d="M115.05887,61.11844c3.82522,4.16075,4.15868,8.117,2.17588,10.596s-7.20027-.8385-4.30369-3.97478,11.87229,3.28155,13.12041,5.98366"/>
      <path class="cls-3" d="M333.29418,237.16893c-2.925,2.77264-5.74225,3.05341-7.53133,1.66661s.51958-5.143,2.78725-3.11177-2.2107,8.50068-4.12375,9.42"/>
      <g>
        <path class="cls-5" d="M360.4901,225.89265l3.61571-40.91377,3.01514-24.67222s2.1482-16.83091,1.587-22.42246c-1.07781-10.73936-1.63607-23.79341-4.14679-29.81889-1.0574-2.53764-3.32466-1.96514-6.4282-.8071-3.66226,1.36652-15.35076.22037-17.69882-.19684-8.558-1.5206-18.99447-7.42253-28.38461-16.69992-2.44481-2.41545-9.70234-2.79331-8.95687-6.55284.228-1.14961,2.83488-4.54347-3.347-4.77822-1.71479-.06511-2.44372-2.752-1.83453-2.90914,8.01644-2.06841,8.65078-.4756,10.37248-.069,7.92468,1.87144,23.14486,14.61511,32.91089,14.03206,3.71366-.22171,21.543-4.78987,25.94576-5.38873,5.53052-.75225,12.38614-2.49006,23.35512-1.587,8.50244.7,19.62282,11.37706,23.06555,16.76461,8.9805,14.05361,6.96521,38.89265,6.40828,41.353-1.31186,5.79548-2.3882,16.54882-3.57261,21.03125-.37652,1.42493-3.662,9.19493-4.1,10.60215-1.55607,4.9984-4.32343,5.46105-4.25841,6.58705.34959,6.05394.712,27.39887.712,27.39887l3.72921,43.39222-40.01158-2.62458Z"/>
        <path class="cls-6" d="M381.70812,248.40527a13.08629,13.08629,0,0,1-4.67394.76415,43.63993,43.63993,0,0,1-7.17739-.2211,21.3713,21.3713,0,0,1-6.55545-1.58681,4.0486,4.0486,0,0,1-2.65839-2.78321,25.95415,25.95415,0,0,1-.20556-3.55932c-.03349-2.04332-.00035-4.08781.05074-6.13054.14152-5.65883.44112-11.31433.80528-16.9628.40331-6.25566.89721-12.50661,1.51826-18.74455.598-6.00671,1.425-11.97876,2.20775-17.96308.91169-6.96984,1.77178-13.94708,2.53182-20.9352.645-5.93077,1.26306-11.87816,1.55442-17.83866a91.15333,91.15333,0,0,0-.74608-14.93846,171.57252,171.57252,0,0,0-3.35875-19.95844c-.32216-1.35635-.67318-2.70582-1.07012-4.0423a.54708.54708,0,0,0-1.05416.29062,130.81487,130.81487,0,0,1,3.84439,19.39723,107.032,107.032,0,0,1,1.38189,16.77571c-.11915,5.55951-.68979,11.118-1.2568,16.64593-.72866,7.10391-1.58251,14.195-2.48942,21.27819-.79413,6.20236-1.70049,12.39042-2.36238,18.609-.67311,6.324-1.19831,12.664-1.63334,19.00854-.40328,5.88133-.73383,11.76985-.91759,17.66242a80.44983,80.44983,0,0,0,.05343,10.99812,4.29227,4.29227,0,0,0,1.59942,3.12868,13.30006,13.30006,0,0,0,5.71187,2.27175,39.99316,39.99316,0,0,0,7.28877.73994,31.92765,31.92765,0,0,0,6.33522-.41841,7.338,7.338,0,0,0,1.82788-.54341c.63506-.30187.081-1.24472-.55177-.944Z"/>
        <g>
          <path class="cls-5" d="M402.78267,167.2105c-.54683,1.65112-1.31182,2.74566-2.11255,4.80309"/>
          <path class="cls-6" d="M402.25559,167.06519a18.02771,18.02771,0,0,1-.93734,2.18288c-.42046.86121-.82559,1.72732-1.17521,2.62021a.55062.55062,0,0,0,.38177.67239.55936.55936,0,0,0,.67239-.38177c.63828-1.63,1.556-3.14033,2.11255-4.80309a.54674.54674,0,1,0-1.05416-.29062Z"/>
        </g>
        <path class="cls-6" d="M407.56942,179.19135c.42234,7.1233.43328,14.22861.43539,21.35967a105.14456,105.14456,0,0,0,1.49968,17.56788c.7692,4.549,1.65966,9.06952,2.29343,13.64155q.77865,5.61714,1.20883,11.27632c.17837,2.39916.305,4.80293.35488,7.20835.01378.66467.03114,1.33128.02162,1.99614a1.53913,1.53913,0,0,1-.49053,1.07529,9.52207,9.52207,0,0,1-4.12061,2.06217,40.69183,40.69183,0,0,1-6.71833,1.35476,53.49669,53.49669,0,0,1-14.46965.12482,9.95157,9.95157,0,0,1-4.35012-1.35507,4.85553,4.85553,0,0,1-.39469-.39568.82321.82321,0,0,1-.145-.38366c-.184-2.17365-.12776-4.39729-.18745-6.57826-.25642-9.369-.46047-18.74213-.39734-28.11517.02974-4.4154.119-8.83136.32284-13.24238.21812-4.71927.59178-9.431.88164-14.14625.63142-10.2711,1.11742-20.55636,1.15526-30.84865q.01365-3.71614-.05645-7.43187a.54694.54694,0,0,0-1.09321,0c.20036,10.4704-.14131,20.943-.70132,31.39783-.51105,9.54074-1.32964,19.06284-1.5264,28.61807-.19659,9.54667-.04363,19.09855.18868,28.64315q.08646,3.5521.18809,7.10382.0489,1.73473.09962,3.46943a6.23952,6.23952,0,0,0,.10716,1.58747c.37623,1.25577,1.89345,1.82965,3.01952,2.17246a25.77991,25.77991,0,0,0,5.98414.902,60.40852,60.40852,0,0,0,7.60463-.06581,59.29884,59.29884,0,0,0,7.58759-.97208,24.0704,24.0704,0,0,0,5.85339-1.80159c1.12422-.54764,2.47356-1.39982,2.71308-2.73588a9.8921,9.8921,0,0,0,.02746-1.85584q-.02209-1.45437-.08236-2.90782a177.58342,177.58342,0,0,0-2.363-21.9037c-.70139-4.22121-1.582-8.40977-2.141-12.65432-.37926-2.87972-.6278-5.77391-.72225-8.67716-.20185-6.20438.0399-12.414-.16957-18.62046q-.116-3.43679-.32452-6.8695c-.04146-.69917-1.135-.70392-1.09321,0Z"/>
        <path class="cls-6" d="M368.11872,134.39423c.3925.392.71965.84413,1.09841,1.249a8.71966,8.71966,0,0,0,1.9744,1.56366c3.01433,1.75941,6.75795,2.24381,10.16193,2.60756a109.87058,109.87058,0,0,0,11.80324.50989.54694.54694,0,0,0,0-1.09322c-5.723.00685-11.66753-.046-17.26072-1.41653a16.2921,16.2921,0,0,1-3.82-1.366,7.22955,7.22955,0,0,1-1.93048-1.41625c-.44213-.44894-.80827-.96629-1.2538-1.41119a.54692.54692,0,0,0-.773.773Z"/>
        <path class="cls-6" d="M402.25559,127.0927a87.621,87.621,0,0,1,.75407,21.01358,93.01531,93.01531,0,0,1-1.73538,10.32721c-.62154,2.838-1.49612,5.63264-2.033,8.48681-.17231.91609-.55656,2.41616.18459,3.18839.36374.379.80822.43765.85947,1.04655a2.99424,2.99424,0,0,1-.33447,1.22416,5.72747,5.72747,0,0,0-.49441,3.3808,4.385,4.385,0,0,0,1.41743,2.26862,7.5009,7.5009,0,0,0,5.59306,1.66377,5.98411,5.98411,0,0,0,2.79023-.95508,7.655,7.655,0,0,0,1.7446-1.99125,21.44685,21.44685,0,0,0,2.08309-4.34618q1.07842-2.53439,2.02182-5.123a89.21782,89.21782,0,0,0,2.98468-10.03477,111.23717,111.23717,0,0,0,2.62461-20.51506c.316-7.23583.4739-14.567-.90707-21.70952A47.23275,47.23275,0,0,0,413.697,99.045a39.63387,39.63387,0,0,0-9.00942-10.17235,35.5321,35.5321,0,0,0-4.71338-3.1779,28.03186,28.03186,0,0,0-9.06472-2.974,47.97657,47.97657,0,0,0-10.01619-.57613A82.449,82.449,0,0,0,370.325,83.50811c-6.33388,1.11163-12.57065,2.63869-18.81431,4.1629-3.9492.96408-8.10384,2.16413-12.20872,2.02033a12.32015,12.32015,0,0,1-5.02481-1.43692c-3.47541-1.6475-6.842-3.51255-10.21766-5.3524-3.39579-1.85079-6.80516-3.68868-10.33746-5.26883a36.27158,36.27158,0,0,0-10.59456-3.3889c-1.74451-.19142-4.582-.23456-5.57049,1.59353a2.07942,2.07942,0,0,0,.11532,2.19784,4.01538,4.01538,0,0,0,2.581,1.21371c.482.09233.96865.16166,1.44835.26613.27735.06041.79463.12177.99147.36328.3614.44343-.25919,1.82866-.40481,2.33091a5.09569,5.09569,0,0,0-.22,3.02826c.43212,1.24885,1.5986,1.60725,2.73472,1.99141a26.90592,26.90592,0,0,1,7.34822,4.29c2.72108,2.05278,5.29987,4.28761,7.9644,6.41191a58.89528,58.89528,0,0,0,8.32426,5.85507,33.25773,33.25773,0,0,0,7.13637,2.72687,59.79981,59.79981,0,0,0,17.15244,2.17166,24.49149,24.49149,0,0,0,6.518-.87791c.671-.20477.38491-1.26032-.29062-1.05416a23.85375,23.85375,0,0,1-6.53387.84542,56.96965,56.96965,0,0,1-8.28813-.50027,60.30166,60.30166,0,0,1-8.42583-1.68267,31.17555,31.17555,0,0,1-6.88511-2.66567c-5.83441-3.25711-10.67913-8.04729-15.97313-12.063a30.09937,30.09937,0,0,0-7.12918-4.28285c-.9547-.3715-2.428-.5157-2.67265-1.71995a6.36038,6.36038,0,0,1,.50489-2.89367,3.15462,3.15462,0,0,0,.08691-2.471c-.45-.69547-1.46233-.83213-2.20677-.96582-.90033-.16168-4.14392-.62755-2.75567-2.21771a3.45573,3.45573,0,0,1,2.30624-.85065,14.07559,14.07559,0,0,1,4.462.4838,53.23325,53.23325,0,0,1,10.4577,4.09c3.4192,1.67086,6.74465,3.52395,10.0873,5.34074a103.43241,103.43241,0,0,0,9.59969,4.85056c3.00378,1.24669,6.50049.72562,9.59525.15346,5.02194-.92845,9.952-2.33881,14.9254-3.48834,3.30274-.76336,6.62106-1.45963,9.95814-2.05622a84.42942,84.42942,0,0,1,10.447-1.40306,46.90716,46.90716,0,0,1,9.90847.487,27.431,27.431,0,0,1,8.92143,2.85346,35.88428,35.88428,0,0,1,9.1221,7.31034,41.174,41.174,0,0,1,7.73379,12.55246,54.65256,54.65256,0,0,1,3.58621,18.60856,149.0781,149.0781,0,0,1-.92338,21.37324,91.91542,91.91542,0,0,1-4.46184,19.56012q-.87687,2.5106-1.89432,4.9691-.54144,1.31147-1.12163,2.60646a17.71794,17.71794,0,0,1-1.0321,2.21351,7.37292,7.37292,0,0,1-1.51622,1.908,4.81863,4.81863,0,0,1-2.54462.91763,6.17476,6.17476,0,0,1-5.09653-1.807,3.04167,3.04167,0,0,1-.73884-2.32262c.11821-1.09519.88462-2.0617.92227-3.16086a2.18436,2.18436,0,0,0-.4245-1.39165c-.3106-.38278-.80732-.43726-.84756-.98109a11.97979,11.97979,0,0,1,.58472-3.54629c.71654-2.93484,1.48466-5.84544,2.08313-8.8096a77.60509,77.60509,0,0,0,1.59206-19.24367c-.17456-3.53252-.57557-7.04877-1.05907-10.551-.09579-.69386-1.1493-.39851-1.05416.29062Z"/>
        <g>
          <path class="cls-7" d="M385.04424,79.93724c.829,2.45735-.01611,5.23057-.46687,6.86992-1.45054,5.27544,15.9041,3.20451,14.57553-1.8111,0,0-.03709-6.90814-4.40053-10.896"/>
          <path class="cls-8" d="M372.76267,67.55234a8.27283,8.27283,0,0,1-1.617,3.51387c-.122.40122,1.39759.99443,2.396,1.05922"/>
          <path class="cls-8" d="M399.18961,68.34242a13.33519,13.33519,0,1,0-7.30506,9.90472"/>
          <path class="cls-8" d="M381.55192,73.39637c-.61114,1.69187-3.20162,1.49869-3.53432,1.19591"/>
          <path class="cls-8" d="M379.43981,64.1599a5.84563,5.84563,0,0,0-2.8517-.96338"/>
          <path class="cls-7" d="M386.77668,50.25655c1.9122.65044,5.87438-.15541,9.08522,2.09741,6.89924,4.84071,6.89071,12.53728,4.46907,17.58931-2.07425,4.32729-3.99427,5.4616-3.99427,5.4616-1.79387.81516-1.52312-.521-3.72372-1.79341-1.39746-.808-4.64788-4.1211-3.8848-4.26816,2.04751-.3946,1.74524-6.618-1.4355-5.58232-3.014.98138-.18572-7.70285-9.18032-7.71843-1.39527-.00241-3.1593-.97027-3.64494-4.5573C373.807,46.607,383.92335,49.286,386.77668,50.25655Z"/>
          <circle class="cls-8" cx="377.64121" cy="67.08401" r="0.7936"/>
        </g>
      </g>
      <g>
        <path class="cls-9" d="M130.61843,156.01878l.45159,26.15008a.407.407,0,0,1-.60436.363L107.59322,169.8479a.407.407,0,0,1-.01217-.70489l22.42084-13.46613A.407.407,0,0,1,130.61843,156.01878Zm-23.02736,13.10458,22.42084-13.46613a.407.407,0,0,0-.01217-.7049l-22.87243-12.68395a.407.407,0,0,0-.60437.363l.45159,26.15009A.407.407,0,0,0,107.59107,169.12336Zm24.06755,13.50886,22.42084-13.46613a.407.407,0,0,0-.01218-.7049l-22.87243-12.68395a.407.407,0,0,0-.60437.363l.45159,26.15008A.407.407,0,0,0,131.65862,182.63222Zm-2.2041-54.54739L107.03368,141.551a.407.407,0,0,0,.01218.70489l22.87243,12.684a.407.407,0,0,0,.60437-.363l-.45159-26.15009A.407.407,0,0,0,129.45452,128.08483Zm24.63472,41.0811L131.6684,182.63207a.407.407,0,0,0,.01217.70489L154.553,196.02091a.407.407,0,0,0,.60437-.363l-.45159-26.15008A.407.407,0,0,0,154.08924,169.16593ZM94.84413,203.18261l.45159-26.15008a.407.407,0,0,0-.60436-.363L71.81892,189.35349a.407.407,0,0,0-.01217.7049l22.42084,13.46613A.407.407,0,0,0,94.84413,203.18261Zm-23.6637-12.78247-.45159,26.15008a.407.407,0,0,0,.60437.363l22.87243-12.68395a.407.407,0,0,0,.01217-.70489L71.797,190.05823A.407.407,0,0,0,71.18043,190.40014Zm22.935-42.36974.45159-26.15008a.407.407,0,0,0-.60437-.363L71.09017,134.20128a.407.407,0,0,0-.01217.7049l22.42084,13.46613A.407.407,0,0,0,94.11538,148.0304ZM70.45167,135.24793,70.00008,161.398a.407.407,0,0,0,.60437.363l22.87243-12.68395a.407.407,0,0,0,.01218-.70489L71.06822,134.906A.407.407,0,0,0,70.45167,135.24793ZM260.41457,77.9626l.77618,26.14246a.407.407,0,0,0,.62074.33423l22.25194-13.74343a.407.407,0,0,0-.02092-.70469l-23.02813-12.399A.407.407,0,0,0,260.41457,77.9626ZM284.6521,89.6204l-.77618-26.14246a.407.407,0,0,0-.62074-.33422L261.00324,76.88714a.407.407,0,0,0,.02092.70469l23.02813,12.399A.407.407,0,0,0,284.6521,89.6204Zm-23.45376,43.27652.77618,26.14247a.407.407,0,0,0,.62074.33422l22.25194-13.74342a.407.407,0,0,0-.02092-.70469l-23.02812-12.399A.407.407,0,0,0,261.19834,132.89692Zm24.23754,11.65781-.77619-26.14246a.407.407,0,0,0-.62074-.33423L261.787,131.82147a.407.407,0,0,0,.02092.70468l23.02813,12.399A.407.407,0,0,0,285.43588,144.55473Zm-155.3773-15.56566.77618,26.14246a.407.407,0,0,0,.62074.33422l22.25195-13.74342a.407.407,0,0,0-.02092-.70469l-23.02813-12.399A.407.407,0,0,0,130.05858,128.98907Zm24.23754,11.6578-.77618-26.14246a.407.407,0,0,0-.62074-.33422l-22.25195,13.74342a.407.407,0,0,0,.02093.70469l23.02812,12.399A.407.407,0,0,0,154.29612,140.64687Zm47.7442.23766.32467,26.152a.407.407,0,0,0,.61488.3449l22.48593-13.35716a.407.407,0,0,0-.00875-.70494l-22.81061-12.79481A.407.407,0,0,0,202.04032,140.88453ZM226.073,152.95909l-.32467-26.152a.407.407,0,0,0-.61488-.34489l-22.48593,13.35715a.407.407,0,0,0,.00875.70495l22.81061,12.79481A.407.407,0,0,0,226.073,152.95909ZM154.80047,140.67l22.42084-13.46613a.407.407,0,0,0-.01218-.70489L154.3367,113.815a.407.407,0,0,0-.60437.363l.45159,26.15008A.407.407,0,0,0,154.80047,140.67Zm23.26724,41.82394L155.64687,195.96a.407.407,0,0,0,.01218.70489l22.87243,12.684a.407.407,0,0,0,.60437-.363l-.4516-26.15008A.407.407,0,0,0,178.06771,182.49389Zm-22.7875-14.12339,22.42084-13.46614a.407.407,0,0,0-.01218-.70489l-22.87243-12.68395a.407.407,0,0,0-.60437.363l.4516,26.15008A.407.407,0,0,0,155.28021,168.3705Zm22.31826-13.3946L155.17763,168.442a.407.407,0,0,0,.01218.7049l22.87243,12.684a.407.407,0,0,0,.60437-.363l-.45159-26.15008A.407.407,0,0,0,177.59847,154.9759Zm49.23334-1.72972L249.25264,139.78a.407.407,0,0,0-.01217-.70489L226.368,126.3912a.407.407,0,0,0-.60437.363l.45159,26.15008A.407.407,0,0,0,226.83181,153.24618ZM201.37154,140.7116,178.9507,154.17773a.407.407,0,0,0,.01217.70489l22.87243,12.684a.407.407,0,0,0,.60437-.363l-.45159-26.15008A.407.407,0,0,0,201.37154,140.7116Zm-22.822-14.17931,22.42084-13.46614a.407.407,0,0,0-.01217-.70489L178.08575,99.67731a.407.407,0,0,0-.60437.363l.45159,26.15008A.407.407,0,0,0,178.54951,126.53229Zm22.38675-13.46551-22.42084,13.46613a.407.407,0,0,0,.01217.70489L201.4,139.92176a.407.407,0,0,0,.60437-.363l-.4516-26.15009A.407.407,0,0,0,200.93626,113.06678Zm-22.81946-14.166,22.42084-13.46613a.407.407,0,0,0-.01218-.70489L177.653,72.04578a.407.407,0,0,0-.60437.363l.45159,26.15008A.407.407,0,0,0,178.1168,98.90075ZM202.212,112.2687,224.6328,98.80257a.407.407,0,0,0-.01217-.70489L201.7482,85.41373a.407.407,0,0,0-.60437.363l.45159,26.15008A.407.407,0,0,0,202.212,112.2687Zm22.38675-13.4655-22.42084,13.46613a.407.407,0,0,0,.01217.70489l22.87243,12.68395a.407.407,0,0,0,.60437-.363l-.45159-26.15008A.407.407,0,0,0,224.59871,98.8032Zm24.178,13.417-22.42084,13.46613a.407.407,0,0,0,.01217.70489l22.87243,12.68395a.407.407,0,0,0,.60437-.363l-.45159-26.15009A.407.407,0,0,0,248.77672,112.22016ZM130.46292,183.237l-22.42084,13.46613a.407.407,0,0,0,.01217.70489l22.87243,12.684a.407.407,0,0,0,.60437-.363l-.45159-26.15009A.407.407,0,0,0,130.46292,183.237Zm-23.60629-13.61143-11.41187,6.854a.407.407,0,0,0-.1974.356l.22984,13.31a.407.407,0,0,0,.20957.34893l11.64171,6.456a.407.407,0,0,0,.407-.007l11.41188-6.854a.407.407,0,0,0,.1974-.356l-.22984-13.31a.407.407,0,0,0-.20957-.34893l-11.64172-6.456A.407.407,0,0,0,106.85663,169.62561Zm94.52612-71.45093-.21362-12.37015a.407.407,0,0,0-.61654-.3419L189.94654,91.8327a.407.407,0,0,0,.01217.70489l10.81967,6.00008A.407.407,0,0,0,201.38275,98.17468Zm.23833,13.80127-.21362-12.37014a.407.407,0,0,0-.61654-.34191L190.18487,105.634a.407.407,0,0,0,.01217.70489l10.81967,6.00008A.407.407,0,0,0,201.62108,111.976Zm-35.39046,35.13-.21361-12.37015a.407.407,0,0,0-.61655-.34191L154.79441,140.764a.407.407,0,0,0,.01217.7049l10.81967,6.00008A.407.407,0,0,0,166.23062,147.10594Zm11.79459-7.13308-.21361-12.37015a.407.407,0,0,0-.61655-.3419L166.589,133.63088a.407.407,0,0,0,.01217.70489l10.81967,6.00008A.407.407,0,0,0,178.02521,139.97286Zm11.90542-5.65.21362,12.37015a.407.407,0,0,0,.61654.34191l10.60605-6.37007a.407.407,0,0,0-.01217-.7049L190.535,133.95985A.407.407,0,0,0,189.93063,134.32283ZM119.12221,176.8934l.21362,12.37014a.407.407,0,0,0,.61654.34191l10.60606-6.37007a.407.407,0,0,0-.01218-.70489l-10.81967-6.00008A.407.407,0,0,0,119.12221,176.8934Zm9.98892-76.46579-22.42084,13.46613a.407.407,0,0,0,.01218.70489l22.87243,12.68395a.407.407,0,0,0,.60437-.363l-.45159-26.15008A.407.407,0,0,0,129.11113,100.42761Zm-23.14526,13.94873-11.41187,6.854a.407.407,0,0,0-.1974.356l.22984,13.31a.407.407,0,0,0,.20957.34893l11.64172,6.456a.407.407,0,0,0,.407-.007l11.41187-6.854a.407.407,0,0,0,.1974-.356l-.22984-13.31a.407.407,0,0,0-.20957-.34893l-11.64171-6.456A.407.407,0,0,0,105.96587,114.37634Zm12.26559,7.26779.21361,12.37014a.407.407,0,0,0,.61654.34191l10.60606-6.37007a.407.407,0,0,0-.01218-.7049l-10.81966-6.00007A.407.407,0,0,0,118.23146,121.64413Zm108.2406,4.20864,22.34-13.59978a.407.407,0,0,0-.01638-.70481L225.84794,99.001a.407.407,0,0,0-.6022.36659l.60774,26.14692A.407.407,0,0,0,226.47206,125.85277Zm-.6256-27.55692,22.34-13.59978a.407.407,0,0,0-.01638-.70481L225.22234,71.44412a.407.407,0,0,0-.60219.36659l.60774,26.14692A.407.407,0,0,0,225.84646,98.29585Zm23.68715,13.47022,11.37074-6.92207a.407.407,0,0,0,.19527-.35713l-.30932-13.30839a.407.407,0,0,0-.21165-.34767l-11.68006-6.38632a.407.407,0,0,0-.40692.00946L237.12093,91.376a.407.407,0,0,0-.19527.35713l.30932,13.30839a.407.407,0,0,0,.21165.34767l11.68006,6.38632A.407.407,0,0,0,249.53361,111.76607Zm-12.30876-7.19441L236.93736,92.203a.407.407,0,0,0-.61857-.33821L225.751,98.29808a.407.407,0,0,0,.01638.70481l10.8553,5.93536A.407.407,0,0,0,237.22485,104.57166ZM227.31213,180.94l22.34-13.59978a.407.407,0,0,0-.01638-.7048L226.688,154.08826a.407.407,0,0,0-.60219.3666l.60774,26.14692A.407.407,0,0,0,227.31213,180.94Zm23.06155-14.08669,11.37074-6.92207a.407.407,0,0,0,.19527-.35713l-.30931-13.30839a.407.407,0,0,0-.21165-.34768l-11.68006-6.38631a.407.407,0,0,0-.40692.00946L237.961,146.46324a.40707.40707,0,0,0-.19527.35714l.30932,13.30838a.407.407,0,0,0,.21165.34768l11.68006,6.38632A.40705.40705,0,0,0,250.37368,166.8533Zm-12.30876-7.19442-.28748-12.36865a.407.407,0,0,0-.61857-.33822l-10.56783,6.4333a.407.407,0,0,0,.01638.7048l10.85531,5.93536A.407.407,0,0,0,238.06492,159.65888Zm-60.16813-32.05764.21362,12.37015a.407.407,0,0,0,.61654.3419l10.60605-6.37007a.407.407,0,0,0-.01217-.70489l-10.81967-6.00008A.407.407,0,0,0,177.89679,127.60124Zm.367,26.18892L178.0502,141.42a.407.407,0,0,0-.61654-.3419l-10.60605,6.37007a.407.407,0,0,0,.01217.70489l10.81967,6.00008A.407.407,0,0,0,178.26382,153.79016Zm-.12842-12.37162.21361,12.37015a.407.407,0,0,0,.61654.34191l10.60606-6.37007a.407.407,0,0,0-.01217-.7049l-10.81967-6.00007A.407.407,0,0,0,178.1354,141.41854Zm-23.148,41.714.21361,12.37014a.407.407,0,0,0,.61655.34191l10.60605-6.37007a.407.407,0,0,0-.01217-.70489l-10.81967-6.00008A.407.407,0,0,0,154.98745,183.1325Zm11.6295-6.93832.21362,12.37014a.407.407,0,0,0,.61654.34191l10.60606-6.37007a.407.407,0,0,0-.01218-.70489l-10.81967-6.00008A.407.407,0,0,0,166.617,176.19418Z"/>
        <path class="cls-10" d="M134.16383,153.667,111.743,167.13308a.407.407,0,0,0,.01217.7049l22.87243,12.684a.407.407,0,0,0,.60437-.363l-.45159-26.15008A.407.407,0,0,0,134.16383,153.667Z"/>
        <path class="cls-10" d="M111.13647,166.77153l-.4516-26.15008a.407.407,0,0,1,.60437-.363l22.87244,12.68395a.407.407,0,0,1,.01217.70489L111.753,167.11343A.407.407,0,0,1,111.13647,166.77153Z"/>
        <path class="cls-10" d="M135.204,180.28039l-.45159-26.15009a.407.407,0,0,1,.60437-.363l22.87243,12.68395a.407.407,0,0,1,.01217.70489l-22.42084,13.46613A.407.407,0,0,1,135.204,180.28039Z"/>
        <path class="cls-10" d="M133.61646,126.0749,111.19562,139.541a.407.407,0,0,0,.01217.7049l22.87243,12.684a.407.407,0,0,0,.60437-.363l-.45159-26.15008A.407.407,0,0,0,133.61646,126.0749Z"/>
        <path class="cls-10" d="M158.25117,167.156l-22.42084,13.46613a.407.407,0,0,0,.01217.70489L158.71494,194.011a.407.407,0,0,0,.60437-.363l-.4516-26.15009A.407.407,0,0,0,158.25117,167.156Z"/>
        <path class="cls-10" d="M99.00607,201.17269l.45159-26.15009a.407.407,0,0,0-.60437-.363l-22.87243,12.684a.407.407,0,0,0-.01217.70489l22.42083,13.46613A.407.407,0,0,0,99.00607,201.17269Z"/>
        <path class="cls-10" d="M75.95891,188.04831l22.42084,13.46613a.407.407,0,0,1-.01218.70489L75.49514,214.90328a.407.407,0,0,1-.60437-.363l.45159-26.15009A.407.407,0,0,1,75.95891,188.04831Z"/>
        <path class="cls-10" d="M98.27731,146.02048l.4516-26.15008a.407.407,0,0,0-.60437-.363l-22.87244,12.684a.407.407,0,0,0-.01217.70489l22.42084,13.46613A.407.407,0,0,0,98.27731,146.02048Z"/>
        <path class="cls-10" d="M75.23015,132.8961,97.651,146.36223a.407.407,0,0,1-.01217.70489l-22.87243,12.684a.407.407,0,0,1-.60437-.363l.45159-26.15009A.407.407,0,0,1,75.23015,132.8961Z"/>
        <path class="cls-10" d="M264.5765,75.95267l.77618,26.14247a.407.407,0,0,0,.62074.33422l22.252-13.74342a.407.407,0,0,0-.02093-.70469l-23.02812-12.399A.407.407,0,0,0,264.5765,75.95267Z"/>
        <path class="cls-10" d="M288.21422,87.98094l-23.02813-12.399a.407.407,0,0,1-.02092-.70468l22.252-13.74343a.407.407,0,0,1,.62074.33423l.77618,26.14246A.407.407,0,0,1,288.21422,87.98094Z"/>
        <path class="cls-10" d="M265.36027,130.887l.77619,26.14246a.407.407,0,0,0,.62073.33422l22.252-13.74342a.407.407,0,0,0-.02092-.70469l-23.02813-12.399A.407.407,0,0,0,265.36027,130.887Z"/>
        <path class="cls-10" d="M288.998,142.91527l-23.02812-12.399a.407.407,0,0,1-.02093-.70469l22.252-13.74342a.407.407,0,0,1,.62074.33422l.77618,26.14246A.407.407,0,0,1,288.998,142.91527Z"/>
        <path class="cls-10" d="M134.22052,126.97914l.77618,26.14246a.407.407,0,0,0,.62074.33423l22.25194-13.74342a.407.407,0,0,0-.02092-.70469l-23.02812-12.399A.407.407,0,0,0,134.22052,126.97914Z"/>
        <path class="cls-10" d="M157.85824,139.00741l-23.02813-12.399a.407.407,0,0,1-.02092-.70469l22.25194-13.74342a.407.407,0,0,1,.62074.33422l.77619,26.14247A.407.407,0,0,1,157.85824,139.00741Z"/>
        <path class="cls-10" d="M206.20225,138.8746l.32468,26.152a.407.407,0,0,0,.61487.34489l22.48593-13.35716a.407.407,0,0,0-.00875-.70494l-22.8106-12.79481A.407.407,0,0,0,206.20225,138.8746Z"/>
        <path class="cls-10" d="M229.62876,151.30922l-22.8106-12.79481a.407.407,0,0,1-.00875-.70494l22.48593-13.35716a.407.407,0,0,1,.61487.34489l.32468,26.152A.407.407,0,0,1,229.62876,151.30922Z"/>
        <path class="cls-10" d="M158.34586,138.31812l-.45159-26.15008a.407.407,0,0,1,.60437-.363l22.87243,12.684a.407.407,0,0,1,.01217.7049L158.9624,138.66A.407.407,0,0,1,158.34586,138.31812Z"/>
        <path class="cls-10" d="M182.22965,180.484l-22.42084,13.46613a.407.407,0,0,0,.01217.70489l22.87243,12.684a.407.407,0,0,0,.60437-.363l-.45159-26.15008A.407.407,0,0,0,182.22965,180.484Z"/>
        <path class="cls-10" d="M158.8256,166.01867l-.45159-26.15009a.407.407,0,0,1,.60437-.363l22.87243,12.68395a.407.407,0,0,1,.01217.7049l-22.42084,13.46613A.407.407,0,0,1,158.8256,166.01867Z"/>
        <path class="cls-10" d="M181.76041,152.966l-22.42084,13.46614a.407.407,0,0,0,.01217.70489l22.87243,12.684a.407.407,0,0,0,.60437-.363l-.45159-26.15008A.407.407,0,0,0,181.76041,152.966Z"/>
        <path class="cls-10" d="M230.3772,150.89434l-.45159-26.15008a.407.407,0,0,1,.60436-.363l22.87244,12.684a.407.407,0,0,1,.01217.7049l-22.42084,13.46613A.407.407,0,0,1,230.3772,150.89434Z"/>
        <path class="cls-10" d="M205.53347,138.70167,183.11263,152.1678a.407.407,0,0,0,.01218.7049l22.87243,12.68395a.407.407,0,0,0,.60437-.363l-.4516-26.15008A.407.407,0,0,0,205.53347,138.70167Z"/>
        <path class="cls-10" d="M182.09491,124.18046l-.4516-26.15009a.407.407,0,0,1,.60437-.363l22.87244,12.68395a.407.407,0,0,1,.01217.70489l-22.42084,13.46613A.407.407,0,0,1,182.09491,124.18046Z"/>
        <path class="cls-10" d="M205.0982,111.05685,182.67736,124.523a.407.407,0,0,0,.01217.7049l22.87243,12.684a.407.407,0,0,0,.60437-.363l-.45159-26.15008A.407.407,0,0,0,205.0982,111.05685Z"/>
        <path class="cls-10" d="M181.66219,96.54892l-.45159-26.15008a.407.407,0,0,1,.60437-.363l22.87243,12.684a.407.407,0,0,1,.01217.7049L182.27873,96.89083A.407.407,0,0,1,181.66219,96.54892Z"/>
        <path class="cls-10" d="M205.75735,109.91687l-.45159-26.15008a.407.407,0,0,1,.60437-.363l22.87243,12.68395a.407.407,0,0,1,.01218.70489L206.3739,110.25878A.407.407,0,0,1,205.75735,109.91687Z"/>
        <path class="cls-10" d="M228.76064,96.79327,206.3398,110.2594a.407.407,0,0,0,.01218.70489l22.87243,12.684a.407.407,0,0,0,.60437-.363l-.45159-26.15009A.407.407,0,0,0,228.76064,96.79327Z"/>
        <path class="cls-10" d="M252.93865,110.21023l-22.42084,13.46613a.407.407,0,0,0,.01217.7049l22.87244,12.684a.407.407,0,0,0,.60436-.363l-.45159-26.15008A.407.407,0,0,0,252.93865,110.21023Z"/>
        <path class="cls-10" d="M134.62485,181.22711,112.204,194.69324a.407.407,0,0,0,.01218.7049l22.87243,12.68395a.407.407,0,0,0,.60437-.363L135.2414,181.569A.407.407,0,0,0,134.62485,181.22711Z"/>
        <path class="cls-10" d="M111.01857,167.61568l-11.41188,6.85405a.407.407,0,0,0-.1974.356l.22984,13.31a.407.407,0,0,0,.20957.34893l11.64172,6.456a.407.407,0,0,0,.407-.007l11.41187-6.85405a.407.407,0,0,0,.1974-.356l-.22984-13.31a.407.407,0,0,0-.20957-.34894l-11.64171-6.456A.407.407,0,0,0,111.01857,167.61568Z"/>
        <path class="cls-10" d="M205.54468,96.16475l-.21361-12.37014a.407.407,0,0,0-.61654-.34191l-10.60606,6.37007a.407.407,0,0,0,.01217.70489l10.81967,6.00008A.407.407,0,0,0,205.54468,96.16475Z"/>
        <path class="cls-10" d="M205.783,109.966l-.21361-12.37015a.407.407,0,0,0-.61654-.34191L194.3468,103.624a.407.407,0,0,0,.01217.7049l10.81967,6.00008A.407.407,0,0,0,205.783,109.966Z"/>
        <path class="cls-10" d="M170.39256,145.096l-.21362-12.37015a.407.407,0,0,0-.61654-.3419L158.95635,138.754a.407.407,0,0,0,.01217.70489l10.81967,6.00008A.407.407,0,0,0,170.39256,145.096Z"/>
        <path class="cls-10" d="M182.18715,137.96293l-.21362-12.37014a.407.407,0,0,0-.61654-.34191l-10.606,6.37007a.407.407,0,0,0,.01217.70489l10.81967,6.00008A.407.407,0,0,0,182.18715,137.96293Z"/>
        <path class="cls-10" d="M194.09257,132.31291l.21361,12.37015a.407.407,0,0,0,.61654.3419l10.60606-6.37007a.407.407,0,0,0-.01217-.70489l-10.81967-6.00008A.407.407,0,0,0,194.09257,132.31291Z"/>
        <path class="cls-10" d="M123.28415,174.88347l.21361,12.37015a.407.407,0,0,0,.61655.3419l10.606-6.37007a.407.407,0,0,0-.01217-.70489l-10.81967-6.00008A.407.407,0,0,0,123.28415,174.88347Z"/>
        <path class="cls-10" d="M133.27307,98.41768l-22.42084,13.46613a.407.407,0,0,0,.01217.70489l22.87243,12.684a.407.407,0,0,0,.60437-.363l-.45159-26.15009A.407.407,0,0,0,133.27307,98.41768Z"/>
        <path class="cls-10" d="M110.12781,112.36641l-11.41187,6.854a.407.407,0,0,0-.1974.356l.22984,13.31a.407.407,0,0,0,.20957.34893l11.64171,6.456a.407.407,0,0,0,.407-.007l11.41188-6.85405a.407.407,0,0,0,.1974-.356l-.22984-13.31a.407.407,0,0,0-.20958-.34894l-11.64171-6.456A.407.407,0,0,0,110.12781,112.36641Z"/>
        <path class="cls-10" d="M122.39339,119.6342l.21362,12.37015a.407.407,0,0,0,.61654.3419l10.606-6.37007a.407.407,0,0,0-.01217-.70489l-10.81967-6.00008A.407.407,0,0,0,122.39339,119.6342Z"/>
        <path class="cls-10" d="M230.634,123.84284l22.34-13.59978a.407.407,0,0,0-.01638-.70481L230.00987,96.99111a.407.407,0,0,0-.60219.36659l.60774,26.14692A.407.407,0,0,0,230.634,123.84284Z"/>
        <path class="cls-10" d="M230.0084,96.28592l22.34-13.59978a.407.407,0,0,0-.01638-.70481L229.38428,69.43419a.407.407,0,0,0-.6022.36659l.60774,26.14692A.407.407,0,0,0,230.0084,96.28592Z"/>
        <path class="cls-10" d="M253.69554,109.75614l11.37075-6.92206a.40707.40707,0,0,0,.19527-.35714l-.30932-13.30838a.407.407,0,0,0-.21165-.34768l-11.68006-6.38632a.40705.40705,0,0,0-.40692.00946l-11.37074,6.92207a.407.407,0,0,0-.19527.35713l.30931,13.30839a.407.407,0,0,0,.21165.34768l11.68006,6.38631A.407.407,0,0,0,253.69554,109.75614Z"/>
        <path class="cls-10" d="M241.38678,102.56173l-.28748-12.36865a.407.407,0,0,0-.61857-.33822L229.9129,96.28815a.407.407,0,0,0,.01638.70481l10.85531,5.93536A.407.407,0,0,0,241.38678,102.56173Z"/>
        <path class="cls-10" d="M231.47407,178.93007l22.34-13.59978a.407.407,0,0,0-.01638-.70481L230.85,152.07834a.407.407,0,0,0-.6022.36659l.60774,26.14692A.407.407,0,0,0,231.47407,178.93007Z"/>
        <path class="cls-10" d="M254.53562,164.84337l11.37074-6.92207a.407.407,0,0,0,.19527-.35713l-.30932-13.30839a.407.407,0,0,0-.21165-.34767l-11.68006-6.38632a.407.407,0,0,0-.40692.00946l-11.37074,6.92207a.407.407,0,0,0-.19527.35713l.30932,13.30839a.407.407,0,0,0,.21165.34767l11.68006,6.38632A.407.407,0,0,0,254.53562,164.84337Z"/>
        <path class="cls-10" d="M242.22686,157.649l-.28749-12.36865a.407.407,0,0,0-.61857-.33822L230.753,151.37538a.407.407,0,0,0,.01638.70481l10.8553,5.93536A.407.407,0,0,0,242.22686,157.649Z"/>
        <path class="cls-10" d="M182.05873,125.59131l.21361,12.37015a.407.407,0,0,0,.61654.34191l10.60606-6.37007a.407.407,0,0,0-.01217-.7049l-10.81967-6.00007A.407.407,0,0,0,182.05873,125.59131Z"/>
        <path class="cls-10" d="M182.42575,151.78024l-.21361-12.37015a.407.407,0,0,0-.61654-.34191l-10.60606,6.37007a.407.407,0,0,0,.01217.7049l10.81967,6.00008A.407.407,0,0,0,182.42575,151.78024Z"/>
        <path class="cls-10" d="M182.29733,139.40862l.21362,12.37015a.407.407,0,0,0,.61654.3419l10.60605-6.37007a.407.407,0,0,0-.01217-.70489l-10.81967-6.00008A.407.407,0,0,0,182.29733,139.40862Z"/>
        <path class="cls-10" d="M159.14939,181.12257l.21361,12.37015a.407.407,0,0,0,.61654.3419l10.60606-6.37007a.407.407,0,0,0-.01218-.70489l-10.81967-6.00008A.407.407,0,0,0,159.14939,181.12257Z"/>
        <path class="cls-10" d="M170.77889,174.18425l.21361,12.37015a.407.407,0,0,0,.61655.3419l10.60605-6.37007a.407.407,0,0,0-.01217-.70489l-10.81967-6.00008A.407.407,0,0,0,170.77889,174.18425Z"/>
      </g>
    </g>
  </g>
</svg>
